<?xml version="1.0" encoding="UTF-8"?>
<svg width="78px" height="30px" viewBox="0 0 78 30" version="1.1" xmlns="http://www.w3.org/2000/svg" xmlns:xlink="http://www.w3.org/1999/xlink">
    <!-- Generator: Sketch 58 (84663) - https://sketch.com -->
    <title>WixLogo</title>
    <desc>Created with Sketch.</desc>
    <g id="WixLogo" stroke="none" stroke-width="1" fill="none" fill-rule="evenodd">
        <g id="wix_logo-copy" fill="#000000" fill-rule="nonzero">
            <path d="M43.9500267,0.521084572 C42.529077,1.26602483 42,2.52361214 42,6 C42,6 42.7193669,5.30401042 43.786413,4.91596508 C44.5644674,4.63472121 45.2287036,4.2057353 45.6128401,3.92360142 C46.8141562,3.0433793 47,1.90950369 47,0.00131741627 C47,0.00131741627 45.0419705,-0.0520833195 43.9500267,0.521084572" id="Fill-1"></path>
            <path d="M33.3571769,4.29369231 L29.2427277,20.3147625 L25.8197425,7.20269308 C25.486886,5.80905647 24.8860277,4.08570116 23.9351455,2.92018388 C22.7238913,1.43549123 20.2622794,1.34155974 20.0009537,1.34155974 C19.7377206,1.34155974 17.2761087,1.43549123 16.0658083,2.92018388 C15.114926,4.08570116 14.5140677,5.80905647 14.1802575,7.20269308 L10.758226,20.3147625 L6.64377682,4.29369231 C6.64377682,4.29369231 6.28040057,2.53870701 5.03767286,1.43836668 C3.02241297,-0.347290133 0,0.0341867389 0,0.0341867389 L7.87982832,29.9753288 C7.87982832,29.9753288 10.4797329,30.1641503 11.7796853,29.497045 C13.4878398,28.6219485 14.3013829,27.9471753 15.3361945,23.8726573 C16.2575107,20.2409592 18.8345255,9.57302552 19.0748689,8.81294722 C19.1940868,8.43817973 19.3447782,7.54103815 20.0009537,7.54103815 C20.6714353,7.54103815 20.8087744,8.43817973 20.9251311,8.81294722 C21.1616595,9.57398398 23.7424892,20.2409592 24.6647592,23.8726573 C25.6986171,27.9471753 26.5131139,28.6219485 28.2212684,29.497045 C29.5212208,30.1641503 32.1211254,29.9753288 32.1211254,29.9753288 L40,0.0341867389 C40,0.0341867389 36.9785407,-0.347290133 34.9632808,1.43836668 C33.7195994,2.53870701 33.3571769,4.29369231 33.3571769,4.29369231 Z" id="Fill-3"></path>
            <path d="M46.9973324,5 C46.9973324,5 46.5376134,5.76278864 45.4901298,6.3919222 C44.8161124,6.79670615 44.1696603,7.06974439 43.4769696,7.42679439 C42.3147786,8.02537821 42,8.69174426 42,9.70943226 L42,10.0483433 L42,11.6197452 L42,11.661751 L42,12.0159371 L42,29.9534035 C42,29.9534035 43.8539925,30.2044841 45.0668683,29.5409821 C46.6274231,28.687499 46.9857727,27.8626562 47,24.1537277 L47,6.07974212 L46.9973324,6.07974212 L46.9973324,5 Z" id="Fill-5"></path>
            <g id="Group-9" transform="translate(50.000000, 0.000000)">
                <path d="M17.6840587,15.0072122 L27.8945669,0.15990163 C27.8945669,0.15990163 23.5855629,-0.55713434 21.4515151,1.34163024 C20.0869323,2.5566872 18.5587163,4.74207572 18.5587163,4.74207572 L14.802948,10.0365246 C14.6208088,10.3117216 14.3812033,10.6116769 14.0013408,10.6116769 C13.6205043,10.6116769 13.3808988,10.3117216 13.1997336,10.0365246 L9.4420172,4.74207572 C9.4420172,4.74207572 7.91574933,2.5566872 6.55019248,1.34163024 C4.41711864,-0.55713434 0.107140695,0.15990163 0.107140695,0.15990163 L10.3176489,15.0072122 L0.133438865,29.807863 C0.133438865,29.807863 4.62165996,30.3620661 6.75570781,28.4633016 C8.12126466,27.2472924 9.4420172,25.2723486 9.4420172,25.2723486 L13.1997336,19.9778998 C13.3808988,19.7027027 13.6205043,19.4027474 14.0013408,19.4027474 C14.3812033,19.4027474 14.6208088,19.7027027 14.802948,19.9778998 L18.5587163,25.2723486 C18.5587163,25.2723486 19.9583634,27.2472924 21.3239203,28.4633016 C23.4579681,30.3620661 27.8672947,29.807863 27.8672947,29.807863 L17.6840587,15.0072122 Z" id="Fill-7"></path>
            </g>
        </g>
    </g>
</svg>